<svg width="38" height="38" viewBox="0 0 38 38" fill="none" xmlns="http://www.w3.org/2000/svg">
<path d="M22.8574 13.0488H27.2023" stroke="white" stroke-width="1.5" stroke-linecap="round" stroke-linejoin="round"/>
<path d="M21.2678 20.7788H21.2694" stroke="white" stroke-width="1.5" stroke-linecap="round" stroke-linejoin="round"/>
<path fill-rule="evenodd" clip-rule="evenodd" d="M28.4304 20.5732H21.2676V20.1487C21.2676 18.071 22.9519 16.3867 25.0296 16.3867V16.3867C27.1072 16.3867 28.7915 18.071 28.7915 20.1487V20.2121C28.7907 20.4112 28.6295 20.5723 28.4304 20.5732V20.5732Z" stroke="white" stroke-width="1.5" stroke-linecap="round" stroke-linejoin="round"/>
<path d="M21.2676 20.5732V20.7807C21.2673 22.3614 22.2177 23.7871 23.677 24.3948C25.1362 25.0025 26.8177 24.6728 27.9394 23.5591" stroke="white" stroke-width="1.5" stroke-linecap="round" stroke-linejoin="round"/>
<path d="M9.69336 18.208V13.4561C9.69336 13.2374 9.87065 13.0601 10.0894 13.0601H13.4569" stroke="white" stroke-width="1.5" stroke-linecap="round" stroke-linejoin="round"/>
<path fill-rule="evenodd" clip-rule="evenodd" d="M14.4501 18.208C16.2405 18.208 17.6924 19.6585 17.6941 21.4489V21.4489C17.6941 22.3088 17.3525 23.1335 16.7444 23.7416C16.1363 24.3497 15.3116 24.6913 14.4517 24.6913H9.91512C9.79315 24.6913 9.69336 24.5139 9.69336 24.2953V18.208H14.4501Z" stroke="white" stroke-width="1.5" stroke-linecap="round" stroke-linejoin="round"/>
<path fill-rule="evenodd" clip-rule="evenodd" d="M26.92 33.256H11.0801C7.58085 33.256 4.74414 30.4193 4.74414 26.92V11.0801C4.74414 7.58085 7.58085 4.74414 11.0801 4.74414H26.92C30.4193 4.74414 33.256 7.58085 33.256 11.0801V26.92C33.256 30.4193 30.4193 33.256 26.92 33.256Z" stroke="white" stroke-width="1.5" stroke-linecap="round" stroke-linejoin="round"/>
<path d="M13.457 13.0615C14.8782 13.0624 16.0301 14.2143 16.031 15.6355V15.6355C16.0293 17.0561 14.8776 18.207 13.457 18.2079" stroke="white" stroke-width="1.5" stroke-linecap="round" stroke-linejoin="round"/>
</svg>
