<svg width="38" height="38" viewBox="0 0 38 38" fill="none" xmlns="http://www.w3.org/2000/svg">
<path fill-rule="evenodd" clip-rule="evenodd" d="M11.8687 4.75H26.1329C30.0628 4.75 33.25 7.93567 33.25 11.8687V26.1329C33.25 30.0628 30.0643 33.25 26.1313 33.25H11.8687C7.93725 33.25 4.75 30.0643 4.75 26.1313V11.8687C4.75 7.93725 7.93567 4.75 11.8687 4.75V4.75Z" stroke="white" stroke-width="1.5" stroke-linecap="round" stroke-linejoin="round"/>
<path d="M26.836 10.6289C26.5415 10.6305 26.3025 10.8695 26.3025 11.164C26.3025 11.4585 26.5431 11.6976 26.8376 11.6976C27.1321 11.6976 27.3712 11.4585 27.3712 11.164C27.3728 10.868 27.1321 10.6289 26.836 10.6289" stroke="white" stroke-width="1.5" stroke-linecap="round" stroke-linejoin="round"/>
<path d="M23.0313 14.9693C25.2573 17.1953 25.2573 20.8043 23.0313 23.0303C20.8053 25.2563 17.1963 25.2563 14.9703 23.0303C12.7443 20.8043 12.7443 17.1953 14.9703 14.9693C17.1963 12.7433 20.8053 12.7433 23.0313 14.9693" stroke="white" stroke-width="1.5" stroke-linecap="round" stroke-linejoin="round"/>
</svg>
