<svg width="38" height="38" viewBox="0 0 38 38" fill="none" xmlns="http://www.w3.org/2000/svg">
<path fill-rule="evenodd" clip-rule="evenodd" d="M11.875 4.75H26.1313C30.0628 4.75 33.25 7.93725 33.25 11.8687V26.1329C33.25 30.0628 30.0628 33.25 26.1313 33.25H11.8687C7.93725 33.25 4.75 30.0628 4.75 26.1313V11.875C4.75 7.94042 7.94042 4.75 11.875 4.75V4.75Z" stroke="white" stroke-width="1.5" stroke-linecap="round" stroke-linejoin="round"/>
<path d="M12.8581 17.5752V26.1252" stroke="white" stroke-width="1.5" stroke-linecap="round" stroke-linejoin="round"/>
<path d="M18.5547 26.1247V21.1372C18.5547 19.1691 20.1491 17.5747 22.1172 17.5747V17.5747C24.0853 17.5747 25.6797 19.1691 25.6797 21.1372V26.1247" stroke="white" stroke-width="1.5" stroke-linecap="round" stroke-linejoin="round"/>
<path d="M12.8526 12.41C12.6563 12.41 12.4963 12.5699 12.4979 12.7663C12.4979 12.9626 12.6578 13.1225 12.8542 13.1225C13.0505 13.1225 13.2104 12.9626 13.2104 12.7663C13.2104 12.5684 13.0505 12.41 12.8526 12.41" stroke="white" stroke-width="1.5" stroke-linecap="round" stroke-linejoin="round"/>
</svg>
