<?xml version="1.0" encoding="UTF-8"?> <svg xmlns="http://www.w3.org/2000/svg" id="Layer_1" data-name="Layer 1" viewBox="0 0 248 100"> <defs> <style>.cls-1{fill:#fff;}</style> </defs> <title>Artboard 1</title> <g id="_Group_" data-name="&lt;Group&gt;"> <rect id="_Path_" data-name="&lt;Path&gt;" class="cls-1" x="70.43" y="42.86" width="7.14" height="35.71"></rect> <polygon id="_Path_2" data-name="&lt;Path&gt;" class="cls-1" points="70.43 35.71 84.71 35.71 84.71 92.86 91.86 92.86 91.86 28.57 77.57 28.57 77.57 7.14 84.71 7.14 84.71 22.14 91.86 22.14 91.86 0 70.43 0 70.43 35.71"></polygon> <rect id="_Path_3" data-name="&lt;Path&gt;" class="cls-1" x="127.57" width="7.14" height="100"></rect> <polygon id="_Path_4" data-name="&lt;Path&gt;" class="cls-1" points="141.86 0 141.86 92.86 149 92.86 149 35.71 156.14 35.71 156.14 28.57 149 28.57 149 7.14 163.29 7.14 163.29 78.57 170.43 78.57 170.43 7.14 177.57 7.14 177.57 0 141.86 0"></polygon> <polygon id="_Path_5" data-name="&lt;Path&gt;" class="cls-1" points="113.29 28.57 106.14 28.57 106.14 0 99 0 99 85.71 106.14 85.71 106.14 35.71 113.29 35.71 113.29 78.57 120.43 78.57 120.43 0 113.29 0 113.29 28.57"></polygon> </g> </svg> 