<?xml version="1.0" encoding="UTF-8"?>
<svg xmlns:xlink="http://www.w3.org/1999/xlink" width="183px" height="50px" viewBox="0 0 183 50" version="1.1"
     xmlns="http://www.w3.org/2000/svg">
    <!-- Generator: sketchtool 52.3 (67297) - http://www.bohemiancoding.com/sketch -->
    <title>E2FF5F47-EA1F-4C0C-B8BD-85521DF2BA14</title>
    <desc>Created with sketchtool.</desc>
    <defs>
        <polygon id="path-1" points="0 50 182.944919 50 182.944919 0.048467433 0 0.048467433"></polygon>
    </defs>
    <g id="UI-kit" stroke="none" stroke-width="1" fill="none" fill-rule="evenodd">
        <g transform="translate(-60.000000, -83.000000)" id="Group-34">
            <g transform="translate(60.000000, 83.000000)">
                <path d="M51.1544799,41.6051233 L52.8211778,41.6051233 L51.9918547,39.5340324 L51.1544799,41.6051233 Z M49,44 L51.4390975,38 L52.5609962,38 L55,44 L53.756109,44 L53.1951128,42.6193709 L50.7885966,42.6193709 L50.227694,44 L49,44 Z"
                      id="Fill-1" fill="#231F20"></path>
                <g id="Group-33">
                    <path d="M59.141772,40.2054502 L60.5676828,40.2054502 C61.1064684,40.2054502 61.4297016,39.9559291 61.4297016,39.4983621 C61.4297016,39.0575575 61.1064684,38.7913697 60.5676828,38.7913697 L59.141772,38.7913697 L59.141772,40.2054502 Z M57.9481194,43.565795 L57.9481194,37.7433812 L60.6339332,37.7433812 C61.2473698,37.7433812 61.7365153,37.9013314 62.0929692,38.2257567 C62.4493275,38.5418487 62.6317548,38.957749 62.6317548,39.4651245 C62.6317548,40.2386877 62.1841351,40.8459674 61.4297016,41.0787261 L63.2203714,43.565795 L61.8359864,43.565795 L60.1448831,41.2118678 L59.141772,41.2118678 L59.141772,43.565795 L57.9481194,43.565795 Z"
                          id="Fill-2" fill="#231F20"></path>
                    <path d="M66.1884557,42.833841 C65.5916294,42.2598946 65.2932163,41.5362356 65.2932163,40.6545307 C65.2932163,39.7645881 65.5916294,39.0408333 66.1801505,38.4753161 C66.7770723,37.9097031 67.5314103,37.6269444 68.4349549,37.6269444 C69.0069612,37.6269444 69.5126216,37.7516571 69.9685465,37.9928448 L69.9685465,39.1989751 C69.5209268,38.8995498 69.0152664,38.7497414 68.4432601,38.7497414 C67.8878642,38.7497414 67.4318438,38.9327874 67.0588751,39.2904502 C66.6941161,39.648113 66.5117844,40.0973467 66.5117844,40.6545307 C66.5117844,41.2118103 66.7024213,41.6693774 67.0754854,42.0269444 C67.4484541,42.3847031 67.9209894,42.5593199 68.4929956,42.5593199 C69.1230426,42.5593199 69.653523,42.3929406 70.0845324,42.0519444 L70.0845324,43.2580747 C69.6120926,43.5408333 69.0650019,43.6822126 68.4349549,43.6822126 C67.5314103,43.6822126 66.785282,43.399454 66.1884557,42.833841"
                          id="Fill-4" fill="#231F20"></path>
                    <polygon id="Fill-6" fill="#231F20"
                             points="72.7624419 43.565795 72.7624419 37.7433812 73.9560945 37.7433812 73.9560945 39.9225958 76.5756579 39.9225958 76.5756579 37.7433812 77.7611008 37.7433812 77.7611008 43.565795 76.5756579 43.565795 76.5756579 41.012251 73.9560945 41.012251 73.9560945 43.565795"></polygon>
                    <mask id="mask-2" fill="white">
                        <use xlink:href="#path-1"></use>
                    </mask>
                    <g id="Clip-9"></g>
                    <polygon id="Fill-8" fill="#231F20" mask="url(#mask-2)"
                             points="80.7457668 43.5658046 81.9312097 43.5658046 81.9312097 37.7433908 80.7457668 37.7433908"></polygon>
                    <polygon id="Fill-10" fill="#231F20" mask="url(#mask-2)"
                             points="84.5176956 37.7433716 89.3837582 37.7433716 89.3837582 38.8163602 87.5434484 38.8163602 87.5434484 43.5657854 86.3497003 43.5657854 86.3497003 38.8163602 84.5176956 38.8163602"></polygon>
                    <polygon id="Fill-11" fill="#231F20" mask="url(#mask-2)"
                             points="91.9289379 43.565795 91.9289379 37.7433812 96.189869 37.7433812 96.189869 38.8163697 93.1225905 38.8163697 93.1225905 39.9392625 95.5929473 39.9392625 95.5929473 40.9955843 93.1225905 40.9955843 93.1225905 42.4928065 96.2810349 42.4928065 96.2810349 43.565795"></polygon>
                    <path d="M99.464538,42.833841 C98.8677117,42.2598946 98.5692986,41.5362356 98.5692986,40.6545307 C98.5692986,39.7645881 98.8677117,39.0408333 99.4562329,38.4753161 C100.053155,37.9097031 100.807493,37.6269444 101.711037,37.6269444 C102.283044,37.6269444 102.788704,37.7516571 103.244724,37.9928448 L103.244724,39.1989751 C102.797009,38.8995498 102.291349,38.7497414 101.719342,38.7497414 C101.163946,38.7497414 100.708022,38.9327874 100.334957,39.2904502 C99.9702939,39.648113 99.7878667,40.0973467 99.7878667,40.6545307 C99.7878667,41.2118103 99.9785991,41.6693774 100.351568,42.0269444 C100.724632,42.3847031 101.197072,42.5593199 101.769173,42.5593199 C102.399125,42.5593199 102.929701,42.3929406 103.36071,42.0519444 L103.36071,43.2580747 C102.888175,43.5408333 102.341084,43.6822126 101.711037,43.6822126 C100.807493,43.6822126 100.06146,43.399454 99.464538,42.833841"
                          id="Fill-12" fill="#231F20" mask="url(#mask-2)"></path>
                    <polygon id="Fill-13" fill="#231F20" mask="url(#mask-2)"
                             points="105.649031 37.7433716 110.515094 37.7433716 110.515094 38.8163602 108.674688 38.8163602 108.674688 43.5657854 107.48094 43.5657854 107.48094 38.8163602 105.649031 38.8163602"></polygon>
                    <path d="M113.681891,43.008477 C113.217661,42.5593391 112.985594,41.9271552 112.985594,41.1203544 L112.985594,37.7433429 L114.171037,37.7433429 L114.171037,41.1620211 C114.171037,42.0852011 114.701613,42.5593391 115.46416,42.5593391 C116.235109,42.5593391 116.765685,42.0852011 116.765685,41.1620211 L116.765685,37.7433429 L117.959433,37.7433429 L117.959433,41.1203544 C117.959433,41.9271552 117.72727,42.5593391 117.254735,43.008477 C116.790505,43.4576149 116.193678,43.6822318 115.46416,43.6822318 C114.742947,43.6822318 114.146121,43.4576149 113.681891,43.008477"
                          id="Fill-14" fill="#231F20" mask="url(#mask-2)"></path>
                    <path d="M122.005136,40.2054502 L123.430951,40.2054502 C123.969737,40.2054502 124.293065,39.9559291 124.293065,39.4983621 C124.293065,39.0575575 123.969737,38.7913697 123.430951,38.7913697 L122.005136,38.7913697 L122.005136,40.2054502 Z M120.811388,43.565795 L120.811388,37.7433812 L123.497297,37.7433812 C124.110734,37.7433812 124.599784,37.9013314 124.956238,38.2257567 C125.312691,38.5418487 125.495119,38.957749 125.495119,39.4651245 C125.495119,40.2386877 125.047403,40.8459674 124.293065,41.0787261 L126.08364,43.565795 L124.699255,43.565795 L123.008151,41.2118678 L122.005136,41.2118678 L122.005136,43.565795 L120.811388,43.565795 Z"
                          id="Fill-15" fill="#231F20" mask="url(#mask-2)"></path>
                    <path d="M130.212232,41.2284962 L131.911641,41.2284962 L131.066041,39.2072318 L130.212232,41.2284962 Z M128.015469,43.5657567 L130.50234,37.7101054 L131.646353,37.7101054 L134.133225,43.5657567 L132.864921,43.5657567 L132.292915,42.2183429 L129.839264,42.2183429 L129.267257,43.5657567 L128.015469,43.5657567 Z"
                          id="Fill-16" fill="#231F20" mask="url(#mask-2)"></path>
                    <polygon id="Fill-17" fill="#231F20" mask="url(#mask-2)"
                             points="136.56239 43.565795 136.56239 37.7433812 137.756138 37.7433812 137.756138 42.4928065 140.698934 42.4928065 140.698934 43.565795"></polygon>
                    <path d="M147.190241,42.833841 C146.601625,42.2598946 146.303211,41.5362356 146.303211,40.6545307 C146.303211,39.7645881 146.601625,39.0408333 147.190241,38.4753161 C147.778762,37.9097031 148.5331,37.6269444 149.436645,37.6269444 C150.108122,37.6269444 150.688529,37.7765613 151.177579,38.067749 L151.177579,39.2488793 C150.638698,38.9162165 150.091607,38.7497414 149.519601,38.7497414 C148.930985,38.7497414 148.45024,38.9245498 148.077175,39.2821169 C147.704207,39.6314464 147.521779,40.0973467 147.521779,40.6795307 C147.521779,41.253477 147.704207,41.7191858 148.060565,42.0602778 C148.417114,42.4012739 148.864734,42.5759866 149.39531,42.5759866 C149.90097,42.5759866 150.290549,42.4511782 150.564143,42.1933238 L150.564143,40.1888218 L151.757795,40.1888218 L151.757795,42.7590326 C151.517423,43.0167912 151.185789,43.241408 150.763085,43.4160249 C150.340285,43.5907375 149.88436,43.6822126 149.39531,43.6822126 C148.516585,43.6822126 147.778762,43.399454 147.190241,42.833841"
                          id="Fill-18" fill="#231F20" mask="url(#mask-2)"></path>
                    <path d="M155.712333,40.2054502 L157.138148,40.2054502 C157.676933,40.2054502 158.000262,39.9559291 158.000262,39.4983621 C158.000262,39.0575575 157.676933,38.7913697 157.138148,38.7913697 L155.712333,38.7913697 L155.712333,40.2054502 Z M154.518585,43.565795 L154.518585,37.7433812 L157.204494,37.7433812 C157.81793,37.7433812 158.30698,37.9013314 158.663434,38.2257567 C159.019888,38.5418487 159.202315,38.957749 159.202315,39.4651245 C159.202315,40.2386877 158.7546,40.8459674 158.000262,41.0787261 L159.790836,43.565795 L158.406451,43.565795 L156.715348,41.2118678 L155.712333,41.2118678 L155.712333,43.565795 L154.518585,43.565795 Z"
                          id="Fill-19" fill="#231F20" mask="url(#mask-2)"></path>
                    <path d="M164.872833,42.5593008 C165.386894,42.5593008 165.809599,42.3763506 166.149442,42.0186877 C166.489381,41.6610249 166.663503,41.2035536 166.663503,40.6545115 C166.663503,40.1055651 166.489381,39.6480939 166.149442,39.290431 C165.809599,38.932864 165.386894,38.749818 164.872833,38.749818 C164.358868,38.749818 163.927858,38.932864 163.588015,39.290431 C163.248076,39.6480939 163.082259,40.1055651 163.082259,40.6545115 C163.082259,41.2035536 163.248076,41.6610249 163.588015,42.0186877 C163.927858,42.3763506 164.358868,42.5593008 164.872833,42.5593008 M162.717595,38.5086303 C163.289506,37.9180172 164.010815,37.6269253 164.872833,37.6269253 C165.734948,37.6269253 166.447951,37.9180172 167.019862,38.5086303 C167.591868,39.0908142 167.881976,39.8061398 167.881976,40.6545115 C167.881976,41.4946456 167.591868,42.210067 167.019862,42.8005843 C166.447951,43.3911973 165.734948,43.6822893 164.872833,43.6822893 C164.010815,43.6822893 163.289506,43.3911973 162.717595,42.8005843 C162.145589,42.210067 161.863786,41.4946456 161.863786,40.6545115 C161.863786,39.8061398 162.145589,39.0908142 162.717595,38.5086303"
                          id="Fill-20" fill="#231F20" mask="url(#mask-2)"></path>
                    <path d="M171.239677,43.008477 C170.775447,42.5593391 170.54338,41.9271552 170.54338,41.1203544 L170.54338,37.7433429 L171.728823,37.7433429 L171.728823,41.1620211 C171.728823,42.0852011 172.259399,42.5593391 173.021946,42.5593391 C173.792895,42.5593391 174.323471,42.0852011 174.323471,41.1620211 L174.323471,37.7433429 L175.517219,37.7433429 L175.517219,41.1203544 C175.517219,41.9271552 175.285056,42.5593391 174.812521,43.008477 C174.348291,43.4576149 173.751464,43.6822318 173.021946,43.6822318 C172.300734,43.6822318 171.703907,43.4576149 171.239677,43.008477"
                          id="Fill-21" fill="#231F20" mask="url(#mask-2)"></path>
                    <path d="M179.562836,40.2386494 L180.822835,40.2386494 C181.394745,40.2386494 181.734684,39.9808908 181.734684,39.5149904 C181.734684,39.0491858 181.394745,38.7914272 180.822835,38.7914272 L179.562836,38.7914272 L179.562836,40.2386494 Z M178.369088,43.5657567 L178.369088,37.7433429 L180.905695,37.7433429 C181.527437,37.7433429 182.024888,37.9097222 182.381246,38.2340517 C182.746101,38.558477 182.928432,38.9743774 182.928432,39.4983238 C182.928432,40.0223659 182.746101,40.4465996 182.381246,40.7710249 C182.024888,41.0953544 181.527437,41.2618295 180.905695,41.2618295 L179.562836,41.2618295 L179.562836,43.5657567 L178.369088,43.5657567 Z"
                          id="Fill-22" fill="#231F20" mask="url(#mask-2)"></path>
                    <path d="M100.456537,28.6556322 C96.8974404,28.6556322 94.1090053,25.7979693 94.1090053,21.8453831 C94.1090053,17.8273755 96.8116203,14.9642529 100.39506,14.9642529 C103.996733,14.9642529 106.713285,17.8273755 106.713285,21.8453831 C106.713285,25.8634866 104.023271,28.6556322 100.456537,28.6556322 M100.456537,10.836092 C94.4387299,10.836092 89.7250241,15.6718199 89.7250241,21.8453831 C89.7250241,28.1222989 94.3120523,32.8553448 100.39506,32.8553448 C106.412868,32.8553448 111.127051,28.0190421 111.127051,21.8453831 C111.127051,15.5691379 106.539545,10.836092 100.456537,10.836092"
                          id="Fill-23" fill="#000000" mask="url(#mask-2)"></path>
                    <path d="M76.2672117,23.353477 L87.2011038,23.353477 L87.2011038,20.0925575 L76.2672117,20.0925575 L76.2672117,14.8350862 L88.3408205,14.8350862 L88.3408205,12.5076916 L88.3408205,11.2125766 L71.7659081,11.2125766 L71.7659081,30.3016571 C71.7659081,30.3060632 71.7941648,31.2203352 72.4387219,31.8898755 C72.7363714,32.2015613 73.664736,32.3947605 74.3540646,32.3958142 L88.5029144,32.3958142 L88.5029144,28.7409291 L76.2672117,28.7409291 L76.2672117,23.353477 Z"
                          id="Fill-24" fill="#000000" mask="url(#mask-2)"></path>
                    <path d="M69.0311894,30.8171648 L69.0311894,11.212567 L64.530554,11.212567 L64.530554,25.0201341 L54.4989656,12.0451341 C54.4065587,11.9237739 54.3091878,11.794272 54.2344413,11.7174521 C53.9783177,11.4506897 53.2253161,11.2443678 52.4026275,11.2147701 L49.2685258,11.212567 L49.2685258,32.3958046 L53.769734,32.3958046 L53.769734,18.1345019 L55.333205,20.1534674 C58.1531424,23.7930268 64.0558232,31.4014559 64.3003005,31.6890996 C64.8060563,32.2542337 65.9717387,32.3914943 66.3778326,32.3958046 L69.6447214,32.3958046 C69.6447214,32.3958046 69.0311894,31.9669732 69.0311894,30.8171648"
                          id="Fill-25" fill="#000000" mask="url(#mask-2)"></path>
                    <path d="M124.38972,22.725728 C123.935132,22.2447893 123.378781,21.8195019 122.721241,21.449387 C122.063702,21.0787931 121.317478,20.7228544 120.483238,20.3799425 C119.830567,20.1144253 119.239564,19.8631801 118.710229,19.6255364 C118.180799,19.3877969 117.728501,19.1280268 117.354005,18.8466092 C116.979605,18.5646169 116.690642,18.2439272 116.487691,17.8852107 C116.284262,17.5259195 116.182691,17.0977586 116.182691,16.6003448 C116.182691,16.1585824 116.260396,15.752069 116.415522,15.381954 C116.570456,15.0118391 116.800423,14.694023 117.105232,14.4285057 C117.410423,14.1635632 117.781864,13.9559962 118.220415,13.8071456 C118.659062,13.6575287 119.161954,13.5831034 119.728805,13.5831034 C120.135472,13.5831034 120.563617,13.6189272 121.012573,13.6911494 C121.461625,13.7627969 121.911249,13.8565709 122.360205,13.972567 C122.474759,14.0021648 122.584445,14.0350192 122.695944,14.0667241 L123.57381,14.3490996 C123.739913,14.4024521 123.862677,14.2756322 123.969975,14.1341571 C124.321465,13.6699808 124.831803,12.9988123 125.191216,12.556092 C125.396554,12.3033142 125.285819,12.0336782 125.124584,11.9658621 C124.571002,11.7331992 123.32265,11.3010153 122.520963,11.1133716 C121.718608,10.9251533 120.819932,10.8313793 119.825126,10.8313793 C118.894661,10.8313793 118.020137,10.9723755 117.201553,11.2537931 C116.383351,11.5357854 115.669298,11.9337739 115.05968,12.4476628 C114.449871,12.9616475 113.968648,13.5858812 113.615727,14.3210345 C113.262614,15.0561877 113.08601,15.87659 113.08601,16.7828161 C113.08601,17.6111686 113.206578,18.3269732 113.447046,18.9296552 C113.6878,19.5316667 114.038049,20.0621264 114.498079,20.5209387 C114.957822,20.979751 115.524864,21.3885632 116.198919,21.7472797 C116.872783,22.1065709 117.643159,22.4630843 118.509282,22.8167241 C119.14057,23.0709387 119.712863,23.3142337 120.226256,23.5461303 C120.739648,23.7781226 121.178199,24.0378927 121.542004,24.3250575 C121.905713,24.6127011 122.18637,24.9498659 122.384453,25.3365517 C122.581963,25.7236207 122.681052,26.1984291 122.681052,26.7624138 C122.681052,27.2592529 122.603442,27.7155747 122.448889,28.1300383 C122.293669,28.5444061 122.058069,28.9010153 121.742759,29.199387 C121.426972,29.4978544 121.036821,29.727069 120.571254,29.8874138 C120.10626,30.0476628 119.563083,30.1278352 118.942964,30.1278352 C116.924141,30.1278352 114.810334,29.0098276 114.810334,29.0098276 C114.641176,28.9464176 114.508484,29.0713218 114.391257,29.212318 C114.006451,29.6742912 113.481985,30.3012069 113.095747,30.7458429 C112.821677,31.0614559 112.975847,31.27659 113.137177,31.3588697 C113.803118,31.6981418 115.318858,32.3019732 115.805808,32.4400958 C116.292281,32.5782184 116.80596,32.6833908 117.346082,32.7550383 C117.88649,32.8272605 118.429094,32.8630843 118.974849,32.8630843 C120.098051,32.8630843 121.084647,32.6999617 121.935401,32.3741954 C122.785583,32.0483333 123.496677,31.6003448 124.068874,31.0312835 C124.641166,30.4622222 125.074276,29.7935441 125.36868,29.0254406 C125.663083,28.2573372 125.809999,27.4367433 125.809999,26.5633716 C125.809999,25.7344444 125.686758,25.0078161 125.440753,24.3836782 C125.194844,23.7593487 124.844213,23.2061877 124.38972,22.725728"
                          id="Fill-26" fill="#000000" mask="url(#mask-2)"></path>
                    <path d="M157.440246,11.2540134 L154.751473,11.2540134 C154.577446,11.2540134 154.363612,11.3794923 154.276074,11.532749 C154.276074,11.532749 149.177657,20.4937644 149.123817,20.6350479 C149.070359,20.5043008 144.079623,11.535431 144.079623,11.535431 C143.994662,11.3806418 143.782928,11.2540134 143.608806,11.2540134 L140.72806,11.2540134 C140.553938,11.2540134 140.483582,11.379205 140.571503,11.5321743 L147.343839,23.3218295 C147.431759,23.4748946 147.503642,23.7452011 147.503642,23.9225958 L147.503642,32.0919444 C147.503642,32.2692433 147.646071,32.4143582 147.820097,32.4143582 L150.348208,32.4143582 C150.522139,32.4143582 150.664473,32.2692433 150.664473,32.0919444 L150.664473,23.8243199 C150.664473,23.6471169 150.736833,23.3770019 150.825326,23.2243199 L157.595848,11.5315996 C157.684341,11.3790134 157.614272,11.2540134 157.440246,11.2540134"
                          id="Fill-27" fill="#000000" mask="url(#mask-2)"></path>
                    <path d="M168.997818,30.0224425 C168.936149,29.8566379 168.855484,29.7000287 168.681553,29.7000287 L162.971705,29.7000287 C161.998855,29.7000287 161.835807,29.2575958 161.835807,28.6015613 L161.835807,11.5764655 C161.835807,11.3990709 161.693378,11.2540517 161.519447,11.2540517 L158.991336,11.2540517 C158.817309,11.2540517 158.674976,11.3990709 158.674976,11.5764655 L158.674976,29.5672701 C158.674976,30.1147797 158.674976,32.4143966 161.553336,32.4143966 L169.476558,32.4143966 C169.650584,32.4143966 169.858309,32.2538602 169.709962,31.8786686 C169.500996,31.349933 169.19991,30.5660249 168.997818,30.0224425"
                          id="Fill-28" fill="#000000" mask="url(#mask-2)"></path>
                    <path d="M174.966405,14.0009195 L182.62854,14.0009195 C182.802566,14.0009195 182.9449,13.8558046 182.9449,13.6785057 L182.9449,11.5763985 C182.9449,11.3990996 182.802566,11.2539847 182.62854,11.2539847 L171.837554,11.2539847 C171.663527,11.2539847 171.521194,11.3990996 171.521194,11.5763985 L171.521194,32.0919157 C171.521194,32.2693103 171.663527,32.4143295 171.837554,32.4143295 L179.806979,32.4143295 L182.08794,32.4143295 L182.660519,32.4143295 C182.83445,32.4143295 183.04227,32.2538889 182.893923,31.8786973 C182.684862,31.3499617 182.383871,30.5659579 182.181779,30.0224713 C182.120111,29.8565709 182.039446,29.6999617 181.865419,29.6999617 L181.56481,29.6999617 L179.806979,29.6999617 L174.966405,29.6999617 C174.792474,29.6999617 174.650141,29.5549425 174.650141,29.3775479 L174.650141,23.4643295 C174.650141,23.2869349 174.792474,23.1419157 174.966405,23.1419157 L181.527485,23.1419157 C181.701511,23.1419157 181.843845,22.9968008 181.843845,22.8194061 L181.843845,20.7499617 C181.843845,20.572567 181.701511,20.4275479 181.527485,20.4275479 L174.966405,20.4275479 C174.792474,20.4275479 174.650141,20.2823372 174.650141,20.1051341 L174.650141,14.3233333 C174.650141,14.1460345 174.792474,14.0009195 174.966405,14.0009195"
                          id="Fill-29" fill="#000000" mask="url(#mask-2)"></path>
                    <path d="M139.272794,11.5802874 C139.211126,11.4124713 139.130461,11.2540421 138.95653,11.2540421 L138.504233,11.2540421 L136.897995,11.2540421 L126.71319,11.2540421 C126.539164,11.2540421 126.396735,11.3990613 126.396735,11.5764559 L126.396735,13.6784674 C126.396735,13.8558621 126.539164,14.0008812 126.71319,14.0008812 L131.343367,14.0008812 C131.517394,14.0008812 131.659727,14.1459962 131.659727,14.3233908 L131.659727,32.0919732 C131.659727,32.269272 131.80206,32.414387 131.975992,32.414387 L134.488256,32.414387 C134.662187,32.414387 134.804616,32.269272 134.804616,32.0919732 L134.804616,14.3233908 C134.804616,14.1459962 134.946949,14.0008812 135.120976,14.0008812 L136.897995,14.0008812 L139.108505,14.0008812 L139.751535,14.0008812 C139.925561,14.0008812 140.133286,13.8385249 139.984938,13.4587356 C139.775973,12.9237739 139.474887,12.1303831 139.272794,11.5802874"
                          id="Fill-30" fill="#000000" mask="url(#mask-2)"></path>
                    <path d="M31.4780238,2.71966475 L30.4324322,2.71966475 L30.4324322,3.54361111 C30.4324322,3.82474138 30.3011725,4.12943487 29.9008063,4.17771073 C29.3371052,4.24562261 28.8686748,3.63135057 28.7782726,3.53441571 C26.7399753,1.35022031 23.7559393,0.0484003831 20.5919581,0.0484003831 C13.6581005,0.0484003831 8.7750457,4.4035728 8.57524444,10.6886303 L1.90923318e-05,10.6886303 L1.90923318e-05,11.7084579 L1.46163255,11.7084579 C2.49099562,11.7084579 3.32533052,12.5457184 3.32533052,13.578477 L3.32533052,36.4256992 C3.32533052,37.4585536 2.49099562,38.2958142 1.46163255,38.2958142 L1.90923318e-05,38.2958142 L1.90923318e-05,39.3599904 L9.07298153,39.3599904 C9.21646041,39.3599904 9.61214898,39.4027107 9.61214898,38.6337452 L9.61214898,16.6522318 L9.57740094,15.7635345 L18.5490786,23.4791475 C18.7505981,23.653477 19.0501568,23.648113 19.2461396,23.4671743 C19.441836,23.2864272 19.47057,22.9866188 19.3129628,22.7712931 C16.4670598,18.8794349 14.8568125,16.4347031 14.8568125,11.4420785 C14.8568125,7.57368774 17.0232194,3.53441571 21.8509064,3.34610153 C27.2335121,3.13613985 30.4352961,6.39658046 30.4352961,10.3634387 L31.4788829,10.3634387 C31.4788829,10.3634387 31.4810786,2.77378352 31.4780238,2.71966475"
                          id="Fill-31" fill="#FFC131" mask="url(#mask-2)"></path>
                    <path d="M40.7918742,38.311159 C39.7625111,38.311159 38.9281762,37.4585728 38.9281762,36.4256226 L38.9281762,35.9729406 L38.9281762,14.0757184 L38.9281762,13.5784962 C38.9281762,12.5457375 39.7625111,11.708477 40.7918742,11.708477 L42.2534876,11.708477 L42.2534876,10.6884579 L33.0171903,10.6884579 C32.6641731,10.6884579 32.6413577,11.0262931 32.6413577,11.3162356 L32.6413577,33.3962165 L32.6761058,34.2850096 L23.7044282,26.5693008 C23.5029086,26.395067 23.2032545,26.4003352 23.0072717,26.5811782 C22.8116707,26.7621169 22.7829368,27.0619253 22.9404485,27.277251 C25.7864469,31.1690134 27.3966942,33.613841 27.3966942,38.6063697 C27.3966942,42.4748563 25.2302873,46.5140326 20.4025049,46.7023467 C15.0199947,46.9123084 11.8182106,43.6518678 11.8182106,39.6851054 L10.7746238,39.6851054 C10.7746238,39.6851054 10.7724282,47.2746648 10.7754829,47.3288793 L11.8210745,47.3288793 L11.8210745,46.5048372 C11.8210745,46.2237069 11.9523343,45.9191092 12.3527005,45.8708333 C12.9164016,45.8029215 13.3847365,46.4171935 13.4752341,46.5141284 C15.5135315,48.698228 18.4975674,49.9999521 21.6614532,49.9999521 C28.5954063,49.9999521 33.478461,45.6448755 33.6781668,39.359818 L42.2534876,39.359818 L42.2534876,38.311159 L40.7918742,38.311159 Z"
                          id="Fill-32" fill="#FFC131" mask="url(#mask-2)"></path>
                </g>
            </g>
        </g>
    </g>
</svg>